<svg xmlns="http://www.w3.org/2000/svg" width="19.613" height="24" viewBox="0 0 19.613 24">
  <path id="Path_10" data-name="Path 10" d="M1843.9,1152.887c-2.029,3.521-.739,8.864,1.505,12.1,1.12,1.619,2.253,3.073,3.807,3.073.029,0,.058,0,.088,0a4.7,4.7,0,0,0,1.767-.47,4.834,4.834,0,0,1,2.093-.5,4.549,4.549,0,0,1,1.992.48,4.218,4.218,0,0,0,1.909.458c1.749-.033,2.823-1.6,3.771-2.986a13.211,13.211,0,0,0,1.652-3.384l.007-.021a.2.2,0,0,0-.1-.242l-.014-.006a5.015,5.015,0,0,1-3.039-4.592,5.161,5.161,0,0,1,2.439-4.315l.019-.012a.195.195,0,0,0,.056-.276,5.676,5.676,0,0,0-4.465-2.425,3.794,3.794,0,0,0-.389-.019,7.776,7.776,0,0,0-2.8.7,4.5,4.5,0,0,1-1.343.4,4.386,4.386,0,0,1-1.388-.406,6.714,6.714,0,0,0-2.447-.622h-.062A6,6,0,0,0,1843.9,1152.887Zm13.484-8.823a5.479,5.479,0,0,0-3.617,1.856,5.136,5.136,0,0,0-1.3,3.807.2.2,0,0,0,.18.17c.084.007.169.01.254.01a4.638,4.638,0,0,0,3.415-1.751,5.414,5.414,0,0,0,1.272-3.917A.2.2,0,0,0,1857.381,1144.064Z" transform="translate(-1842.885 -1144.064)" fill="#f96332"/>
</svg>
