<svg xmlns="http://www.w3.org/2000/svg" width="24.955" height="26.621" viewBox="0 0 24.955 26.621"><defs><style>.a{fill:#f96332;}</style></defs><g transform="translate(-16.014 0)"><g transform="translate(17.693 0)"><g transform="translate(0 0)"><path class="a" d="M51.6.426a3.38,3.38,0,0,0-3.3.008L60.43,11.623,64.5,7.548Z" transform="translate(-48.302 0)"/></g></g><g transform="translate(16.014 1.579)"><g transform="translate(0)"><path class="a" d="M16.48,30.365a3.1,3.1,0,0,0-.466,1.625V52.2a3.112,3.112,0,0,0,.434,1.586l12.2-12.2Z" transform="translate(-16.014 -30.365)"/></g></g><g transform="translate(31.044 8.385)"><g transform="translate(0)"><path class="a" d="M313.356,163.422l-3.886-2.145-4.367,4.366,5.352,4.936,2.9-1.6a3.144,3.144,0,0,0,0-5.555Z" transform="translate(-305.102 -161.277)"/></g></g><g transform="translate(17.638 13.929)"><g transform="translate(0)"><path class="a" d="M59.476,267.9l-12.23,12.23a3.373,3.373,0,0,0,3.354.032l13.87-7.655Z" transform="translate(-47.246 -267.901)"/></g></g></g></svg>